<?xml version="1.0" encoding="UTF-8" standalone="no"?>
<!-- Created with Inkscape (http://www.inkscape.org/) -->

<svg
   xmlns:dc="http://purl.org/dc/elements/1.1/"
   xmlns:cc="http://creativecommons.org/ns#"
   xmlns:rdf="http://www.w3.org/1999/02/22-rdf-syntax-ns#"
   xmlns:svg="http://www.w3.org/2000/svg"
   xmlns="http://www.w3.org/2000/svg"
   xmlns:sodipodi="http://sodipodi.sourceforge.net/DTD/sodipodi-0.dtd"
   xmlns:inkscape="http://www.inkscape.org/namespaces/inkscape"
   width="48"
   height="48"
   viewBox="0 0 48 48.000001"
   id="svg3347"
   version="1.1"
   inkscape:version="0.91 r13725"
   sodipodi:docname="icon.svg">
  <defs
     id="defs3349" />
  <sodipodi:namedview
     id="base"
     pagecolor="#ffffff"
     bordercolor="#666666"
     borderopacity="1.0"
     inkscape:pageopacity="0.0"
     inkscape:pageshadow="2"
     inkscape:zoom="7.9195959"
     inkscape:cx="26.738378"
     inkscape:cy="24.339213"
     inkscape:document-units="px"
     inkscape:current-layer="layer1"
     showgrid="false"
     units="px"
     inkscape:window-width="1280"
     inkscape:window-height="961"
     inkscape:window-x="1672"
     inkscape:window-y="-8"
     inkscape:window-maximized="1" />
  <metadata
     id="metadata3352">
    <rdf:RDF>
      <cc:Work
         rdf:about="">
        <dc:format>image/svg+xml</dc:format>
        <dc:type
           rdf:resource="http://purl.org/dc/dcmitype/StillImage" />
        <dc:title></dc:title>
      </cc:Work>
    </rdf:RDF>
  </metadata>
  <g
     inkscape:label="Ebene 1"
     inkscape:groupmode="layer"
     id="layer1"
     transform="translate(0,-1004.3622)">
    <path
       id="path3357"
       d="m 39.275694,1010.4814 -14.842628,14.6957 -4.898558,-4.8985 -14.6956729,14.8426 4.8985575,4.8985 9.7971154,-9.944 4.898558,4.8985 19.594228,-19.5942 -4.7516,-4.8986 z m -34.4368589,34.2899 0,4.8986 39.1884589,0 0,-4.8986 -39.1884589,0 z"
       inkscape:connector-curvature="0"
       style="fill:#ff9e0e;fill-opacity:1" />
    <path
       style="fill-opacity:0;fill:#ff9e0e"
       d="M 7.3337986,33.160088 4.9246053,30.745785 7.0690928,28.579706 c 1.1794681,-1.191345 4.4680042,-4.511633 7.3078572,-7.37842 l 5.16337,-5.21234 2.445018,2.443806 2.445018,2.443807 1.986675,-1.969439 c 1.092672,-1.083191 4.431563,-4.390126 7.419758,-7.348745 l 5.433083,-5.3793058 1.846012,1.9029924 c 1.015307,1.0466459 2.063777,2.1361744 2.329934,2.4211744 l 0.483922,0.518182 -9.749345,9.749345 -9.749345,9.749346 -2.440152,-2.438942 -2.440152,-2.438941 -4.903877,4.966083 -4.9038771,4.966083 -2.4091933,-2.414304 z"
       id="path4183"
       inkscape:connector-curvature="0"
       transform="translate(0,1004.3622)" />
    <path
       style="fill:#ff9e0e;fill-opacity:0"
       d="M 7.3337986,33.160088 4.9246053,30.745785 7.0690928,28.579706 c 1.1794681,-1.191345 4.4680042,-4.511633 7.3078572,-7.37842 l 5.16337,-5.21234 2.445018,2.443806 2.445018,2.443807 1.986675,-1.969439 c 1.092672,-1.083191 4.431563,-4.390126 7.419758,-7.348745 l 5.433083,-5.3793058 1.846012,1.9029924 c 1.015307,1.0466459 2.063777,2.1361744 2.329934,2.4211744 l 0.483922,0.518182 -9.749345,9.749345 -9.749345,9.749346 -2.440152,-2.438942 -2.440152,-2.438941 -4.903877,4.966083 -4.9038771,4.966083 -2.4091933,-2.414304 z"
       id="path4185"
       inkscape:connector-curvature="0"
       transform="translate(0,1004.3622)" />
    <path
       style="fill:#ff9e0e;fill-opacity:0"
       d="M 7.3337986,33.160088 4.9246053,30.745785 7.0690928,28.579706 c 1.1794681,-1.191345 4.4680042,-4.511633 7.3078572,-7.37842 l 5.16337,-5.21234 2.445018,2.443806 2.445018,2.443807 1.986675,-1.969439 c 1.092672,-1.083191 4.431563,-4.390126 7.419758,-7.348745 l 5.433083,-5.3793058 1.846012,1.9029924 c 1.015307,1.0466459 2.063777,2.1361744 2.329934,2.4211744 l 0.483922,0.518182 -9.749345,9.749345 -9.749345,9.749346 -2.440152,-2.438942 -2.440152,-2.438941 -4.903877,4.966083 -4.9038771,4.966083 -2.4091933,-2.414304 z"
       id="path4187"
       inkscape:connector-curvature="0"
       transform="translate(0,1004.3622)" />
    <path
       style="fill:#ff9e0e;fill-opacity:0"
       d="M 7.3337986,33.160088 4.9246053,30.745785 7.0690928,28.579706 c 1.1794681,-1.191345 4.4680042,-4.511633 7.3078572,-7.37842 l 5.16337,-5.21234 2.445018,2.443806 2.445018,2.443807 1.986675,-1.969439 c 1.092672,-1.083191 4.431563,-4.390126 7.419758,-7.348745 l 5.433083,-5.3793058 1.846012,1.9029924 c 1.015307,1.0466459 2.063777,2.1361744 2.329934,2.4211744 l 0.483922,0.518182 -9.749345,9.749345 -9.749345,9.749346 -2.440152,-2.438942 -2.440152,-2.438941 -4.903877,4.966083 -4.9038771,4.966083 -2.4091933,-2.414304 z"
       id="path4189"
       inkscape:connector-curvature="0"
       transform="translate(0,1004.3622)" />
    <path
       style="fill:#ff9e0e;fill-opacity:0"
       d="M 7.3337986,33.160088 4.9246053,30.745785 7.0690928,28.579706 c 1.1794681,-1.191345 4.4680042,-4.511633 7.3078572,-7.37842 l 5.16337,-5.21234 2.445018,2.443806 2.445018,2.443807 1.986675,-1.969439 c 1.092672,-1.083191 4.431563,-4.390126 7.419758,-7.348745 l 5.433083,-5.3793058 1.846012,1.9029924 c 1.015307,1.0466459 2.063777,2.1361744 2.329934,2.4211744 l 0.483922,0.518182 -9.749345,9.749345 -9.749345,9.749346 -2.440152,-2.438942 -2.440152,-2.438941 -4.903877,4.966083 -4.9038771,4.966083 -2.4091933,-2.414304 z"
       id="path4191"
       inkscape:connector-curvature="0"
       transform="translate(0,1004.3622)" />
    <path
       style="fill:#ff9e0e;fill-opacity:0"
       d="m 4.8769205,42.88684 0,-2.410714 19.5535715,0 19.553571,0 0,2.410714 0,2.410714 -19.553571,0 -19.5535715,0 0,-2.410714 z"
       id="path4193"
       inkscape:connector-curvature="0"
       transform="translate(0,1004.3622)" />
    <path
       style="fill:#ff9e0e;fill-opacity:0"
       d="m 11.662635,15.63211 c -0.635444,-1.299429 -0.634302,-1.299021 -2.0901279,-0.7457 l -1.063342,0.404149 -0.499158,-0.432925 C 7.1137291,14.080281 7.1429188,14.224795 7.6619635,13.134512 8.2858913,11.823916 8.273545,11.796623 6.8125604,11.256837 l -1.0874256,-0.401768 0,-0.826169 0,-0.8261687 1.0559638,-0.4124101 C 7.5857044,8.4760799 7.8712375,8.3211053 7.9806325,8.1392676 8.1196509,7.9081898 8.1096197,7.8692939 7.6642264,6.9124071 L 7.20425,5.9241902 7.6292676,5.526636 C 7.8630273,5.3079813 8.1590924,5.0466406 8.28719,4.945879 L 8.5200948,4.762676 9.6049747,5.1729367 C 11.056167,5.721723 11.067726,5.7171817 11.712537,4.3448714 l 0.475324,-1.011603 0.881995,0 0.881994,0 0.473232,1.0233917 c 0.629016,1.3602831 0.642733,1.3654443 2.132071,0.8022331 l 1.085333,-0.4104322 0.626146,0.5606023 c 0.34438,0.3083313 0.626146,0.5884199 0.626146,0.622419 0,0.033999 -0.198981,0.4879395 -0.442179,1.0087563 -0.43669,0.935185 -0.440312,0.9501938 -0.291729,1.2090821 0.124574,0.2170584 0.334983,0.3302832 1.223428,0.6583496 l 1.07298,0.3962072 0.02548,0.8002835 0.02548,0.800283 -1.123747,0.429366 c -1.525547,0.582885 -1.531931,0.595767 -0.928801,1.8744 0.247204,0.524073 0.437082,0.985402 0.421953,1.025177 -0.01513,0.03977 -0.297877,0.316499 -0.628326,0.614942 l -0.600817,0.542624 -0.60454,-0.229569 c -1.578116,-0.599274 -1.595707,-0.60382 -1.88024,-0.485963 -0.218779,0.09062 -0.34945,0.286503 -0.724456,1.085991 l -0.457531,0.975428 -0.914014,-2.65e-4 -0.914015,-2.66e-4 -0.491071,-1.004199 z m 2.684516,-3.38248 c 0.559861,-0.259953 1.063358,-0.733553 1.298895,-1.221768 0.232171,-0.48124 0.269411,-1.3604526 0.07877,-1.8596459 -0.797598,-2.08848 -4.086447,-2.2894032 -5.160894,-0.3152906 -0.7475267,1.3734535 -0.07676,2.9610085 1.485541,3.5159395 0.664625,0.236075 1.641654,0.185374 2.29769,-0.119235 z"
       id="path4195"
       inkscape:connector-curvature="0"
       transform="translate(0,1004.3622)" />
    <path
       style="fill:#ff9e0e;fill-opacity:0"
       d="M 12.124538,12.307908 C 10.667534,11.853215 9.9262174,10.261754 10.577113,8.9858926 10.805535,8.538149 11.388574,8.0096145 11.919563,7.768939 c 0.623155,-0.2824506 1.680004,-0.264697 2.332358,0.03918 1.017061,0.4737649 1.518566,1.1918613 1.516984,2.1721441 -0.0028,1.7126386 -1.844907,2.8892086 -3.644367,2.3276446 z"
       id="path4197"
       inkscape:connector-curvature="0"
       transform="translate(0,1004.3622)" />
    <path
       style="fill:#fb580e;fill-opacity:1"
       d="m 10.273675,1020.4994 c -0.6354436,-1.2995 -0.6343016,-1.2991 -2.0901276,-0.7457 l -1.063342,0.4041 -0.499158,-0.4329 c -0.896278,-0.7774 -0.867088,-0.6329 -0.348044,-1.7231 0.623928,-1.3106 0.611582,-1.3379 -0.849403,-1.8777 l -1.087425,-0.4018 0,-0.8262 0,-0.8261 1.055963,-0.4124 c 0.804606,-0.3143 1.090139,-0.4693 1.199534,-0.6511 0.139019,-0.2311 0.128988,-0.27 -0.316406,-1.2268 l -0.459976,-0.9883 0.425017,-0.3975 c 0.23376,-0.2187 0.529825,-0.48 0.657923,-0.5808 l 0.232905,-0.1832 1.08488,0.4103 c 1.451192,0.5488 1.462751,0.5442 2.1075616,-0.8281 l 0.475324,-1.0116 0.881995,0 0.881994,0 0.473232,1.0234 c 0.629016,1.3603 0.642733,1.3654 2.132071,0.8022 l 1.085333,-0.4104 0.626146,0.5606 c 0.34438,0.3083 0.626146,0.5884 0.626146,0.6224 0,0.034 -0.198981,0.488 -0.442179,1.0088 -0.43669,0.9352 -0.440312,0.9502 -0.291729,1.2091 0.124574,0.217 0.334983,0.3302 1.223428,0.6583 l 1.07298,0.3962 0.02548,0.8003 0.02548,0.8003 -1.123747,0.4294 c -1.525547,0.5828 -1.531931,0.5957 -0.928801,1.8744 0.247204,0.524 0.437082,0.9854 0.421953,1.0251 -0.01513,0.04 -0.297877,0.3165 -0.628326,0.615 l -0.600817,0.5426 -0.60454,-0.2296 c -1.578116,-0.5992 -1.595707,-0.6038 -1.88024,-0.4859 -0.218779,0.091 -0.34945,0.2865 -0.724456,1.086 l -0.457531,0.9754 -0.914014,-3e-4 -0.914015,-2e-4 -0.491071,-1.0042 z m 2.684516,-3.3825 c 0.559861,-0.26 1.063358,-0.7336 1.298895,-1.2218 0.232171,-0.4812 0.269411,-1.3604 0.07877,-1.8596 -0.797598,-2.0885 -4.086447,-2.2894 -5.1608936,-0.3153 -0.747527,1.3734 -0.07676,2.961 1.4855406,3.5159 0.664625,0.2361 1.641654,0.1854 2.29769,-0.1192 z"
       id="path4207"
       inkscape:connector-curvature="0" />
    <text
       xml:space="preserve"
       style="font-style:normal;font-weight:normal;font-size:15px;line-height:125%;font-family:sans-serif;letter-spacing:0px;word-spacing:0px;fill:#000000;fill-opacity:1;stroke:none;stroke-width:1px;stroke-linecap:butt;stroke-linejoin:miter;stroke-opacity:1"
       x="5.4295707"
       y="1043.9021"
       id="text4213"
       sodipodi:linespacing="125%"><tspan
         sodipodi:role="line"
         id="tspan4215"
         x="5.4295707"
         y="1043.9021"
         style="font-style:normal;font-variant:normal;font-weight:bold;font-stretch:normal;font-family:sans-serif;-inkscape-font-specification:'sans-serif Bold'">GAM</tspan></text>
  </g>
</svg>
